#Comment line ignore any data following # character 
#Hierarchical Translation and Rotation (.htr) file 
[Header]	
#Header keywords are followed by a single value 
FileType HTR		#Single word string
DataType HTRS		#Translation followed by rotation and scale data
FileVersion 1		#integer
NumSegments 84		#integer
NumFrames 2		#integer
DataFrameRate 30		#integer, data frame rate in this file
EulerRotationOrder ZYX
CalibrationUnits mm
RotationUnits Degrees
GlobalAxisofGravity Y
BoneLengthAxis Y
ScaleFactor 1.00
[SegmentNames&Hierarchy]
#CHILD	PARENT
MASTER GLOBAL
root MASTER
chest root
L_mid_tent01 root
R_mid_tent01 root
spine01 root
Bip01_Neck chest
L_humerus chest
R_humerus chest
weapon_bone chest
Bip01_Head Bip01_Neck
eye_left_bone Bip01_Head
eye_right_bone Bip01_Head
L_forearm L_humerus
L_front_hand L_forearm
L_weapon_bone L_forearm
L_front_hand01_01 L_front_hand
L_front_hand02_01 L_front_hand
L_front_hand03_01 L_front_hand
L_front_hand01_02 L_front_hand01_01
L_front_hand02_02 L_front_hand02_01
L_front_hand03_02 L_front_hand03_01
R_forearm R_humerus
R_front_hand R_forearm
R_weapon_bone R_forearm
R_front_hand01_01 R_front_hand
R_front_hand02_01 R_front_hand
R_front_hand03_01 R_front_hand
R_front_hand01_02 R_front_hand01_01
R_front_hand02_02 R_front_hand02_01
R_front_hand03_02 R_front_hand03_01
null_rope01_connect L_mid_tent01
Rope1_Seg01 null_rope01_connect
Rope1_Seg02 Rope1_Seg01
Rope1_Seg03 Rope1_Seg02
Rope1_Seg04 Rope1_Seg03
Rope1_Seg05 Rope1_Seg04
Rope1_Seg06 Rope1_Seg05
Rope1_Seg07 Rope1_Seg06
Rope1_Seg09 Rope1_Seg07
L_mid_hand01 Rope1_Seg09
L_mid_hand02 Rope1_Seg09
L_mid_hand03 Rope1_Seg09
null_rope02_connect R_mid_tent01
Rope2_Seg01 null_rope02_connect
Rope2_Seg02 Rope2_Seg01
Rope2_Seg03 Rope2_Seg02
Rope2_Seg04 Rope2_Seg03
Rope2_Seg05 Rope2_Seg04
Rope2_Seg06 Rope2_Seg05
Rope2_Seg07 Rope2_Seg06
Rope2_Seg09 Rope2_Seg07
R_mid_hand01 Rope2_Seg09
R_mid_hand02 Rope2_Seg09
R_mid_hand03 Rope2_Seg09
spine02 spine01
spine03 spine02
pelvis spine03
null_rope03_connect pelvis
null_rope04_connect pelvis
Rope3_Seg01 null_rope03_connect
Rope3_Seg02 Rope3_Seg01
Rope3_Seg03 Rope3_Seg02
Rope3_Seg04 Rope3_Seg03
Rope3_Seg05 Rope3_Seg04
Rope3_Seg06 Rope3_Seg05
Rope3_Seg07 Rope3_Seg06
Rope3_Seg08 Rope3_Seg07
Rope3_Seg09 Rope3_Seg08
R_rear_hand01 Rope3_Seg09
R_rear_hand02 Rope3_Seg09
R_rear_hand03 Rope3_Seg09
Rope4_Seg01 null_rope04_connect
Rope4_Seg02 Rope4_Seg01
Rope4_Seg03 Rope4_Seg02
Rope4_Seg04 Rope4_Seg03
Rope4_Seg05 Rope4_Seg04
Rope4_Seg06 Rope4_Seg05
Rope4_Seg07 Rope4_Seg06
Rope4_Seg08 Rope4_Seg07
Rope4_Seg09 Rope4_Seg08
L_rear_hand01 Rope4_Seg09
L_rear_hand02 Rope4_Seg09
L_rear_hand03 Rope4_Seg09
[BasePosition]
#SegmentName Tx, Ty, Tz, Rx, Ry, Rz, BoneLength
MASTER 0.000000 0.000000 0.000000 -90.000000 0.000000 0.000000 10.000000 
root 0.000000 0.000000 0.000000 0.000000 0.000000 0.000000 10.000000 
chest 0.000000 0.000000 0.000000 0.000000 0.000000 0.000000 10.000000 
L_mid_tent01 0.000000 0.000000 0.000000 0.000000 0.000000 0.000000 10.000000 
R_mid_tent01 0.000000 0.000000 0.000000 0.000000 0.000000 0.000000 10.000000 
spine01 0.000000 0.000000 0.000000 0.000000 0.000000 0.000000 10.000000 
Bip01_Neck 0.000000 0.000000 0.000000 0.000000 0.000000 0.000000 10.000000 
L_humerus 0.000000 0.000000 0.000000 0.000000 0.000000 0.000000 10.000000 
R_humerus 0.000000 0.000000 0.000000 0.000000 0.000000 0.000000 10.000000 
weapon_bone 0.000000 0.000000 0.000000 0.000000 0.000000 0.000000 10.000000 
Bip01_Head 0.000000 0.000000 0.000000 0.000000 0.000000 0.000000 10.000000 
eye_left_bone 0.000000 0.000000 0.000000 0.000000 0.000000 0.000000 10.000000 
eye_right_bone 0.000000 0.000000 0.000000 0.000000 0.000000 0.000000 10.000000 
L_forearm 0.000000 0.000000 0.000000 0.000000 0.000000 0.000000 10.000000 
L_front_hand 0.000000 0.000000 0.000000 0.000000 0.000000 0.000000 10.000000 
L_weapon_bone 0.000000 0.000000 0.000000 0.000000 0.000000 0.000000 10.000000 
L_front_hand01_01 0.000000 0.000000 0.000000 0.000000 0.000000 0.000000 10.000000 
L_front_hand02_01 0.000000 0.000000 0.000000 0.000000 0.000000 0.000000 10.000000 
L_front_hand03_01 0.000000 0.000000 0.000000 0.000000 0.000000 0.000000 10.000000 
L_front_hand01_02 0.000000 0.000000 0.000000 0.000000 0.000000 0.000000 10.000000 
L_front_hand02_02 0.000000 0.000000 0.000000 0.000000 0.000000 0.000000 10.000000 
L_front_hand03_02 0.000000 0.000000 0.000000 0.000000 0.000000 0.000000 10.000000 
R_forearm 0.000000 0.000000 0.000000 0.000000 0.000000 0.000000 10.000000 
R_front_hand 0.000000 0.000000 0.000000 0.000000 0.000000 0.000000 10.000000 
R_weapon_bone 0.000000 0.000000 0.000000 0.000000 0.000000 0.000000 10.000000 
R_front_hand01_01 0.000000 0.000000 0.000000 0.000000 0.000000 0.000000 10.000000 
R_front_hand02_01 0.000000 0.000000 0.000000 0.000000 0.000000 0.000000 10.000000 
R_front_hand03_01 0.000000 0.000000 0.000000 0.000000 0.000000 0.000000 10.000000 
R_front_hand01_02 0.000000 0.000000 0.000000 0.000000 0.000000 0.000000 10.000000 
R_front_hand02_02 0.000000 0.000000 0.000000 0.000000 0.000000 0.000000 10.000000 
R_front_hand03_02 0.000000 0.000000 0.000000 0.000000 0.000000 0.000000 10.000000 
null_rope01_connect 0.000000 0.000000 0.000000 0.000000 0.000000 0.000000 10.000000 
Rope1_Seg01 0.000000 0.000000 0.000000 0.000000 0.000000 0.000000 10.000000 
Rope1_Seg02 0.000000 0.000000 0.000000 0.000000 0.000000 0.000000 10.000000 
Rope1_Seg03 0.000000 0.000000 0.000000 0.000000 0.000000 0.000000 10.000000 
Rope1_Seg04 0.000000 0.000000 0.000000 0.000000 0.000000 0.000000 10.000000 
Rope1_Seg05 0.000000 0.000000 0.000000 0.000000 0.000000 0.000000 10.000000 
Rope1_Seg06 0.000000 0.000000 0.000000 0.000000 0.000000 0.000000 10.000000 
Rope1_Seg07 0.000000 0.000000 0.000000 0.000000 0.000000 0.000000 10.000000 
Rope1_Seg09 0.000000 0.000000 0.000000 0.000000 0.000000 0.000000 10.000000 
L_mid_hand01 0.000000 0.000000 0.000000 0.000000 0.000000 0.000000 10.000000 
L_mid_hand02 0.000000 0.000000 0.000000 0.000000 0.000000 0.000000 10.000000 
L_mid_hand03 0.000000 0.000000 0.000000 0.000000 0.000000 0.000000 10.000000 
null_rope02_connect 0.000000 0.000000 0.000000 0.000000 0.000000 0.000000 10.000000 
Rope2_Seg01 0.000000 0.000000 0.000000 0.000000 0.000000 0.000000 10.000000 
Rope2_Seg02 0.000000 0.000000 0.000000 0.000000 0.000000 0.000000 10.000000 
Rope2_Seg03 0.000000 0.000000 0.000000 0.000000 0.000000 0.000000 10.000000 
Rope2_Seg04 0.000000 0.000000 0.000000 0.000000 0.000000 0.000000 10.000000 
Rope2_Seg05 0.000000 0.000000 0.000000 0.000000 0.000000 0.000000 10.000000 
Rope2_Seg06 0.000000 0.000000 0.000000 0.000000 0.000000 0.000000 10.000000 
Rope2_Seg07 0.000000 0.000000 0.000000 0.000000 0.000000 0.000000 10.000000 
Rope2_Seg09 0.000000 0.000000 0.000000 0.000000 0.000000 0.000000 10.000000 
R_mid_hand01 0.000000 0.000000 0.000000 0.000000 0.000000 0.000000 10.000000 
R_mid_hand02 0.000000 0.000000 0.000000 0.000000 0.000000 0.000000 10.000000 
R_mid_hand03 0.000000 0.000000 0.000000 0.000000 0.000000 0.000000 10.000000 
spine02 0.000000 0.000000 0.000000 0.000000 0.000000 0.000000 10.000000 
spine03 0.000000 0.000000 0.000000 0.000000 0.000000 0.000000 10.000000 
pelvis 0.000000 0.000000 0.000000 0.000000 0.000000 0.000000 10.000000 
null_rope03_connect 0.000000 0.000000 0.000000 0.000000 0.000000 0.000000 10.000000 
null_rope04_connect 0.000000 0.000000 0.000000 0.000000 0.000000 0.000000 10.000000 
Rope3_Seg01 0.000000 0.000000 0.000000 0.000000 0.000000 0.000000 10.000000 
Rope3_Seg02 0.000000 0.000000 0.000000 0.000000 0.000000 0.000000 10.000000 
Rope3_Seg03 0.000000 0.000000 0.000000 0.000000 0.000000 0.000000 10.000000 
Rope3_Seg04 0.000000 0.000000 0.000000 0.000000 0.000000 0.000000 10.000000 
Rope3_Seg05 0.000000 0.000000 0.000000 0.000000 0.000000 0.000000 10.000000 
Rope3_Seg06 0.000000 0.000000 0.000000 0.000000 0.000000 0.000000 10.000000 
Rope3_Seg07 0.000000 0.000000 0.000000 0.000000 0.000000 0.000000 10.000000 
Rope3_Seg08 0.000000 0.000000 0.000000 0.000000 0.000000 0.000000 10.000000 
Rope3_Seg09 0.000000 0.000000 0.000000 0.000000 0.000000 0.000000 10.000000 
R_rear_hand01 0.000000 0.000000 0.000000 0.000000 0.000000 0.000000 10.000000 
R_rear_hand02 0.000000 0.000000 0.000000 0.000000 0.000000 0.000000 10.000000 
R_rear_hand03 0.000000 0.000000 0.000000 0.000000 0.000000 0.000000 10.000000 
Rope4_Seg01 0.000000 0.000000 0.000000 0.000000 0.000000 0.000000 10.000000 
Rope4_Seg02 0.000000 0.000000 0.000000 0.000000 0.000000 0.000000 10.000000 
Rope4_Seg03 0.000000 0.000000 0.000000 0.000000 0.000000 0.000000 10.000000 
Rope4_Seg04 0.000000 0.000000 0.000000 0.000000 0.000000 0.000000 10.000000 
Rope4_Seg05 0.000000 0.000000 0.000000 0.000000 0.000000 0.000000 10.000000 
Rope4_Seg06 0.000000 0.000000 0.000000 0.000000 0.000000 0.000000 10.000000 
Rope4_Seg07 0.000000 0.000000 0.000000 0.000000 0.000000 0.000000 10.000000 
Rope4_Seg08 0.000000 0.000000 0.000000 0.000000 0.000000 0.000000 10.000000 
Rope4_Seg09 0.000000 0.000000 0.000000 0.000000 0.000000 0.000000 10.000000 
L_rear_hand01 0.000000 0.000000 0.000000 0.000000 0.000000 0.000000 10.000000 
L_rear_hand02 0.000000 0.000000 0.000000 0.000000 0.000000 0.000000 10.000000 
L_rear_hand03 0.000000 0.000000 0.000000 0.000000 0.000000 0.000000 10.000000 
#Beginning of Data. Separated by tabs
#Fr	Tx	Ty	Tz	Rx	Ry	Rz	SF
[MASTER]
3 -192.836365 -13.417390 37.912601 0.001660 0.001660 0.001660 196.985413
4 -289.254547 -20.126085 56.868900 0.001660 0.001660 0.001660 295.478149
[root]
3 -16.502304 -11.342530 1596.511475 -102.992455 -14.821331 -78.940666 1596.637085
4 -16.502304 -30.358215 1721.127197 -112.538086 -17.547218 -69.781387 1721.473877
[chest]
3 -84.512650 -34.090519 0.000000 -1.005988 1.146596 168.737564 91.129311
4 -84.512650 -34.090519 0.000000 -0.575792 1.546556 169.981567 91.129311
[L_mid_tent01]
3 27.299105 22.179152 -249.918701 -16.493149 23.632998 32.046127 252.381683
4 27.299109 22.179155 -249.918701 -12.689778 28.752871 42.591351 252.381683
[R_mid_tent01]
3 23.228794 24.509907 226.238495 -172.245590 -24.466595 36.726540 228.744751
4 23.228794 24.509907 226.238495 -176.454788 -27.111309 43.597069 228.744751
[spine01]
3 -0.361383 -0.195265 0.000000 0.001949 0.001308 22.266888 0.410763
4 -0.361383 -0.195265 0.000000 0.001950 0.001306 22.374409 0.410763
[Bip01_Neck]
3 165.484543 71.581718 0.000119 176.643677 -1.657967 43.431911 180.302734
4 165.484543 71.581718 0.000119 176.643677 -1.657967 43.431911 180.302734
[L_humerus]
3 -13.983130 -135.272980 -120.471481 -9.550038 83.144821 83.992104 181.680161
4 -13.983130 -135.272980 -120.471481 144.452545 85.934555 -122.523026 181.680161
[R_humerus]
3 -13.983309 -135.273102 125.287651 68.273895 -82.155098 30.480673 184.909012
4 -13.983309 -135.273102 125.287651 155.589783 -82.233322 -58.059929 184.909012
[weapon_bone]
3 235.964890 -300.705902 0.000000 0.000000 -89.951546 -128.212341 382.234833
4 235.964890 -300.705902 0.000000 0.000000 -89.951546 -128.212341 382.234833
[Bip01_Head]
3 213.443192 185.718277 11.741531 4.962490 2.797846 -43.898750 283.173340
4 213.442688 185.719635 11.723820 4.962490 2.797846 -43.898743 283.173096
[eye_left_bone]
3 -24.626970 125.451866 -64.772606 0.000000 -90.000000 -99.840431 143.318359
4 -24.626970 125.451866 -64.772606 0.000000 -90.000000 -99.840431 143.318359
[eye_right_bone]
3 -24.626970 125.451866 64.327362 0.000000 -89.965736 80.156380 143.117676
4 -24.626970 125.451866 64.327362 0.000000 -89.965736 80.156380 143.117676
[L_forearm]
3 322.776093 0.000000 -0.000119 0.000364 -0.002319 -107.836807 322.776093
4 322.776093 0.000000 -0.000119 0.000260 -0.002333 -102.740669 322.776093
[L_front_hand]
3 241.149185 -0.042021 -3.300071 -178.575836 -1.768837 -30.242264 241.171753
4 241.149185 -0.042021 -3.300071 -178.608322 -1.790269 -29.300268 241.171753
[L_weapon_bone]
3 156.183838 0.000000 0.000000 0.000014 0.000007 0.000001 156.183838
4 156.183838 0.000000 0.000000 0.000014 0.000007 0.000001 156.183838
[L_front_hand01_01]
3 86.095154 20.947098 -0.655860 -0.366594 -0.477154 75.385574 88.609184
4 86.095154 20.947098 -0.655860 -0.366594 -0.477154 75.385574 88.609184
[L_front_hand02_01]
3 86.935165 -11.437475 24.513514 154.399796 -59.883835 -61.369587 91.046425
4 86.935165 -11.437475 24.513514 154.399796 -59.883835 -61.369587 91.046425
[L_front_hand03_01]
3 86.637497 -14.123976 -20.424902 -153.913849 58.118122 -62.702866 90.126129
4 86.637497 -14.123976 -20.424902 -153.913879 58.118130 -62.702892 90.126129
[L_front_hand01_02]
3 71.020905 -0.000179 0.000030 0.000327 -0.002324 -106.023590 71.020905
4 71.020905 -0.000179 0.000030 0.000326 -0.002324 -105.984665 71.020905
[L_front_hand02_02]
3 71.020927 -0.000119 0.000060 0.000327 -0.002324 -106.023590 71.020927
4 71.020927 -0.000119 0.000060 0.000326 -0.002324 -105.984665 71.020927
[L_front_hand03_02]
3 71.020905 -0.000060 0.000060 0.000327 -0.002324 -106.023590 71.020905
4 71.020905 -0.000060 0.000060 0.000326 -0.002324 -105.984665 71.020905
[R_forearm]
3 322.776428 -0.000060 0.000030 0.204138 0.054874 -106.163086 322.776428
4 322.776428 -0.000060 0.000030 0.210856 0.035740 -101.123207 322.776428
[R_front_hand]
3 238.847015 -0.006795 2.210259 -2.014478 -10.778469 -29.646654 238.857239
4 238.847015 -0.006795 2.210259 -2.221781 -10.738686 -28.534069 238.857239
[R_weapon_bone]
3 155.664093 0.002503 -0.000030 0.003487 0.001180 -90.988930 155.664078
4 155.664093 0.002503 -0.000030 0.003487 0.001180 -90.988930 155.664078
[R_front_hand01_01]
3 87.624611 14.231146 22.918642 -154.633499 -59.950619 61.746044 91.683487
4 87.624611 14.231146 22.918642 -154.633499 -59.950642 61.746071 91.683487
[R_front_hand02_01]
3 89.356956 14.367283 -19.491137 154.602661 58.302849 63.744389 92.579636
4 89.356956 14.367283 -19.491137 154.602661 58.302849 63.744381 92.579636
[R_front_hand03_01]
3 87.286232 -22.307278 -0.143439 0.162155 -0.423168 -75.767921 90.091743
4 87.286232 -22.307278 -0.143439 0.162155 -0.423168 -75.767921 90.091743
[R_front_hand01_02]
3 71.020905 0.000060 0.000119 0.002323 -0.000334 106.381714 71.020905
4 71.020905 0.000060 0.000119 0.002323 -0.000334 106.381714 71.020905
[R_front_hand02_02]
3 71.020844 -0.000030 -0.000119 0.002323 -0.000334 106.381714 71.020836
4 71.020844 -0.000030 -0.000119 0.002323 -0.000334 106.381714 71.020836
[R_front_hand03_02]
3 71.020905 0.000000 0.000030 0.002323 -0.000334 106.381714 71.020905
4 71.020905 0.000000 0.000030 0.002323 -0.000334 106.381714 71.020905
[null_rope01_connect]
3 328.732483 0.000000 -0.000238 -162.366867 -53.647877 -123.580429 328.732483
4 328.732483 0.000000 -0.000238 -164.716049 -45.567558 -122.844505 328.732483
[Rope1_Seg01]
3 0.000009 -0.000040 0.000144 21.582659 -1.260334 -132.648987 0.000150
4 0.000013 -0.000041 0.000140 9.786229 -0.077549 -141.203796 0.000146
[Rope1_Seg02]
3 139.999863 -0.000179 0.000000 22.371189 8.582584 7.553171 139.999863
4 139.999863 -0.000179 0.000000 21.971653 4.873356 11.825938 139.999863
[Rope1_Seg03]
3 139.999924 0.000060 -0.000060 5.813632 9.215500 -3.683605 139.999924
4 139.999924 0.000060 -0.000060 8.793526 7.211831 0.348164 139.999924
[Rope1_Seg04]
3 139.999924 -0.000060 -0.000119 19.186741 8.008008 11.350086 139.999924
4 139.999924 -0.000060 -0.000119 29.610859 8.394497 15.856632 139.999924
[Rope1_Seg05]
3 139.999832 0.000119 -0.000060 21.741066 8.142383 12.747443 139.999832
4 139.999832 0.000119 -0.000060 28.034327 12.529364 12.424769 139.999832
[Rope1_Seg06]
3 139.999954 0.000119 -0.000060 7.144596 4.557120 2.716511 139.999954
4 139.999954 0.000119 -0.000060 7.197668 6.020687 1.502173 139.999954
[Rope1_Seg07]
3 139.999985 0.000060 0.000000 3.741274 2.799525 1.162286 139.999985
4 139.999985 0.000060 0.000000 3.448065 3.513436 0.389609 139.999985
[Rope1_Seg09]
3 121.602913 0.000119 -0.000089 -89.793175 -1.359789 0.847147 121.602913
4 121.602913 0.000119 -0.000089 -89.793175 -1.359789 0.847147 121.602913
[L_mid_hand01]
3 103.859421 1.038730 8.195221 127.008408 -65.676300 -35.012211 104.187431
4 103.859421 1.038730 8.195221 128.844925 -66.712723 -37.020279 104.187431
[L_mid_hand02]
3 105.572853 -4.139662 -10.864139 -166.682281 42.892521 -70.228371 106.211075
4 105.572853 -4.139662 -10.864139 -167.882584 43.183556 -71.986374 106.211075
[L_mid_hand03]
3 104.641464 17.579376 -3.913581 -6.788666 17.538548 72.343208 106.179977
4 104.641464 17.579376 -3.913581 -6.373020 17.687300 73.717346 106.179977
[null_rope02_connect]
3 328.732849 0.000179 -0.000119 -99.186493 62.564663 16.483877 328.732849
4 328.732849 0.000179 -0.000119 -80.726189 53.651993 38.494518 328.732849
[Rope2_Seg01]
3 0.000045 0.000117 -0.000009 18.306671 24.241833 -46.857658 0.000125
4 0.000048 0.000118 -0.000013 12.476903 38.466820 -53.107121 0.000128
[Rope2_Seg02]
3 139.999741 -0.000060 -0.000119 -7.336830 -11.311474 -0.625341 139.999756
4 139.999741 -0.000060 -0.000119 0.368953 -10.611732 6.054835 139.999756
[Rope2_Seg03]
3 140.000107 0.000030 0.000000 4.259846 -10.760406 7.111849 140.000107
4 140.000107 0.000030 0.000000 20.074057 -9.827342 20.166374 140.000107
[Rope2_Seg04]
3 139.999802 0.000000 -0.000060 -35.959244 -6.744220 -15.278930 139.999802
4 139.999802 0.000000 -0.000060 -41.585903 -19.395058 -14.738503 139.999802
[Rope2_Seg05]
3 139.999985 -0.000060 0.000119 -15.355114 10.146348 -17.726635 139.999985
4 139.999985 -0.000060 0.000119 -27.070272 3.338257 -27.469311 139.999985
[Rope2_Seg06]
3 139.999893 -0.000030 -0.000119 -2.955455 4.311871 -5.364300 139.999893
4 139.999893 -0.000030 -0.000119 -3.878459 3.474718 -6.649661 139.999893
[Rope2_Seg07]
3 139.999893 0.000060 -0.000060 -1.347273 2.594210 -2.967864 139.999893
4 139.999893 0.000060 -0.000060 -1.676452 2.123066 -3.492880 139.999893
[Rope2_Seg09]
3 121.338966 0.000089 -0.000060 33.793236 -1.359788 -0.847141 121.338966
4 121.338966 0.000089 -0.000060 33.793236 -1.359788 -0.847141 121.338966
[R_mid_hand01]
3 104.680779 11.144459 -10.335981 -18.460539 44.531563 67.275063 105.778534
4 104.680779 11.144459 -10.335981 -17.254469 44.921875 68.987289 105.778534
[R_mid_hand02]
3 104.070427 2.443552 8.231699 52.565647 -65.920616 35.485355 104.424065
4 104.070427 2.443552 8.231699 50.757656 -66.920883 37.459167 104.424065
[R_mid_hand03]
3 106.028137 -11.221827 -5.996406 -176.446564 15.418314 -74.140053 106.788818
4 106.028137 -11.221827 -5.996406 -176.797501 15.492968 -75.452667 106.788818
[spine02]
3 129.756927 0.001550 0.000119 -0.115402 -4.204980 -5.985147 129.756927
4 129.756927 0.001550 0.000119 -0.537059 -4.124720 -0.157159 129.756927
[spine03]
3 78.614044 0.081735 -4.898995 1.623031 4.236909 12.166096 78.766579
4 78.614044 0.081709 -4.898995 1.355466 4.241382 8.533010 78.766579
[pelvis]
3 169.435242 0.051022 0.000000 -0.016780 -0.076768 5.354856 169.435257
4 169.435242 0.051022 0.000000 -0.001256 -0.117075 -1.986605 169.435257
[null_rope03_connect]
3 -1.257226 -2.466202 137.391083 148.499588 -75.922607 -76.249672 137.418976
4 -1.257226 -2.466202 137.391083 150.134506 -65.285545 -67.439041 137.418976
[null_rope04_connect]
3 -1.259640 -2.480268 -137.844437 148.499588 -75.922607 -76.249672 137.872513
4 -1.259640 -2.480268 -137.844437 150.134506 -65.285545 -67.439041 137.872513
[Rope3_Seg01]
3 0.000000 0.000000 0.000000 17.214142 5.463394 -76.020699 0.000000
4 0.000000 0.000000 0.000000 15.757766 -4.231444 -64.777237 0.000000
[Rope3_Seg02]
3 139.999924 -0.000119 0.000060 1.175072 9.613257 3.913076 139.999924
4 139.999924 -0.000119 0.000060 3.845245 15.140489 3.078962 139.999924
[Rope3_Seg03]
3 139.999924 -0.000119 0.000119 2.176930 9.922194 5.246846 139.999924
4 139.999924 -0.000119 0.000119 7.137529 16.500210 4.282811 139.999924
[Rope3_Seg04]
3 139.999924 0.000119 0.000000 2.750242 8.560288 3.834588 139.999924
4 139.999924 0.000119 0.000000 8.380698 12.966007 1.045531 139.999924
[Rope3_Seg05]
3 139.999924 -0.000238 0.000060 1.604345 -0.346316 -5.916512 139.999924
4 139.999924 -0.000238 0.000060 2.500293 -1.149367 -7.444326 139.999924
[Rope3_Seg06]
3 139.999893 -0.000119 -0.000060 1.046492 -1.948416 -5.523831 139.999893
4 139.999893 -0.000119 -0.000060 1.010105 -3.173719 -6.169450 139.999893
[Rope3_Seg07]
3 139.999771 0.000060 -0.000119 0.891466 -0.196459 -2.512559 139.999771
4 139.999771 0.000060 -0.000119 1.198137 -0.483340 -3.302827 139.999771
[Rope3_Seg08]
3 139.999985 -0.000060 0.000000 0.750657 -0.151041 -1.606767 139.999985
4 139.999985 -0.000060 0.000000 0.923264 -0.352354 -2.108236 139.999985
[Rope3_Seg09]
3 90.185997 -0.000179 -0.000060 89.793228 -1.359877 -0.847183 90.185997
4 90.185997 -0.000179 -0.000060 89.793228 -1.359877 -0.847183 90.185997
[R_rear_hand01]
3 103.366196 -6.073594 -10.757982 173.944031 -15.314018 -73.422325 104.101845
4 103.366196 -6.073594 -10.757982 173.360733 -15.257832 -74.504295 104.101845
[R_rear_hand02]
3 100.509819 12.039542 -7.992327 -14.693279 36.267807 69.111252 101.543350
4 100.509819 12.039542 -7.992327 -13.721433 36.601822 70.754135 101.543350
[R_rear_hand03]
3 101.539970 5.215704 5.435467 73.641991 -69.405350 19.228550 101.819031
4 101.539970 5.215704 5.435467 72.550484 -70.706764 20.388565 101.819031
[Rope4_Seg01]
3 0.000010 0.000036 -0.000144 -101.450333 14.568458 -109.866341 0.000149
4 0.000010 0.000035 -0.000140 -98.992508 4.289651 -99.297821 0.000144
[Rope4_Seg02]
3 139.999985 0.000060 0.000119 0.017633 -1.472132 -0.473394 139.999985
4 139.999985 0.000060 0.000119 0.041542 2.766566 0.012556 139.999985
[Rope4_Seg03]
3 139.999924 0.000000 -0.000238 0.032089 -2.332706 -0.765737 139.999924
4 139.999924 0.000000 -0.000238 0.158493 4.503632 -0.165338 139.999924
[Rope4_Seg04]
3 139.999985 0.000000 0.000119 0.856836 -11.146299 -7.934632 139.999985
4 139.999985 0.000000 0.000119 0.844691 9.045615 -6.548563 139.999985
[Rope4_Seg05]
3 139.999802 -0.000060 -0.000119 1.490519 12.656160 18.715382 139.999802
4 139.999802 -0.000060 -0.000119 -3.252996 21.456615 29.131290 139.999802
[Rope4_Seg06]
3 139.999924 0.000000 0.000060 -1.630244 11.427350 14.001824 139.999924
4 139.999924 0.000000 0.000060 -16.609591 8.157758 19.229504 139.999924
[Rope4_Seg07]
3 139.999802 0.000000 0.000000 -1.920417 3.840587 5.621236 139.999802
4 139.999802 0.000000 0.000000 -11.533928 1.472136 8.620883 139.999802
[Rope4_Seg08]
3 139.999924 0.000000 0.000119 -2.774348 1.797543 2.838022 139.999924
4 139.999924 0.000000 0.000119 -6.356961 -0.105077 3.073961 139.999924
[Rope4_Seg09]
3 90.185791 0.000060 0.000060 -135.617828 2.228885 0.850567 90.185791
4 90.185791 0.000060 0.000060 -135.617828 2.228885 0.850567 90.185791
[L_rear_hand01]
3 101.696655 -8.392275 -7.654577 -14.718358 -36.257187 110.935326 102.329041
4 101.696655 -8.392275 -7.654577 -13.731910 -36.595154 109.269127 102.329041
[L_rear_hand02]
3 102.726799 -1.568258 5.773216 73.658264 69.371582 160.791580 102.900848
4 102.726799 -1.568258 5.773216 72.566826 70.694969 159.630798 102.900848
[L_rear_hand03]
3 104.552910 9.721220 -10.420293 -176.542313 -24.437103 -108.899315 105.519653
4 104.552910 9.721220 -10.420293 -177.172852 -24.512310 -107.383331 105.519653
